<?xml version="1.0" encoding="UTF-8"?>
<svg xmlns="http://www.w3.org/2000/svg" width="380" height="55" viewBox="0 0 380 55" fill="none">
  <path d="M3.87 48.39C2.84333 48.39 2.00333 48.0633 1.35 47.41C0.696667 46.7567 0.37 45.8467 0.37 44.68C0.37 44.0267 0.51 43.3033 0.79 42.51C1.02333 41.67 1.44333 40.7833 2.05 39.85C3.12333 38.17 4.5 36.3033 6.18 34.25C7.90667 32.15 9.72667 30.0733 11.64 28.02C13.5533 25.9667 15.35 24.1 17.03 22.42C18.7567 20.6933 20.1333 19.3633 21.16 18.43C21.6267 17.03 22.07 15.5833 22.49 14.09C22.9567 12.5967 23.4233 11.0567 23.89 9.47C22.5833 10.6833 21.09 11.5933 19.41 12.2C17.7767 12.8067 16.2367 13.1567 14.79 13.25H14.72C14.2533 13.25 14.02 13.0867 14.02 12.76C14.02 12.3867 14.3 12.1767 14.86 12.13C16.2133 11.99 17.6133 11.4767 19.06 10.59C20.5067 9.65667 21.8367 8.49 23.05 7.09C24.31 5.64333 25.2667 4.10333 25.92 2.47C26.0133 2.19 26.3167 1.98 26.83 1.84C27.39 1.7 27.9733 1.63 28.58 1.63C29.0933 1.63 29.5367 1.7 29.91 1.84C30.33 1.93333 30.4933 2.14333 30.4 2.47C29.56 4.61666 28.7433 6.69333 27.95 8.7C27.1567 10.66 26.3867 12.5733 25.64 14.44C28.3933 12.1067 30.96 10.17 33.34 8.63C35.7667 7.04333 37.7267 6.20333 39.22 6.11C41.88 5.97 43.9567 6.41333 45.45 7.44C46.99 8.46666 48.0633 9.84333 48.67 11.57C49.3233 13.25 49.65 15.0467 49.65 16.96C49.65 17.4267 49.6267 17.87 49.58 18.29C49.58 18.71 49.5567 19.13 49.51 19.55C49.2767 21.6967 48.81 24.1467 48.11 26.9C47.41 29.6533 46.6633 32.22 45.87 34.6C45.7767 34.8333 45.6367 35.2533 45.45 35.86C45.2633 36.42 45.24 36.7 45.38 36.7C45.4267 36.7 45.66 36.3967 46.08 35.79C47.2467 33.8767 48.3667 32.01 49.44 30.19C50.56 28.3233 51.75 26.41 53.01 24.45C54.8767 21.5567 56.9067 18.64 59.1 15.7C61.34 12.76 63.58 10.1233 65.82 7.79C66.7067 6.85667 67.6167 6.15667 68.55 5.69C69.53 5.22333 70.44 4.99 71.28 4.99C72.2133 4.99 72.9833 5.31666 73.59 5.97C74.2433 6.57666 74.57 7.53333 74.57 8.84C74.57 9.16666 74.5233 9.54 74.43 9.96C74.3833 10.3333 74.3133 10.7533 74.22 11.22C73.66 13.46 73.0067 15.5133 72.26 17.38C71.5133 19.2467 70.7667 21.09 70.02 22.91C69.2733 24.6833 68.5967 26.55 67.99 28.51C67.43 30.47 67.0333 32.64 66.8 35.02C66.7533 35.44 66.7067 35.8367 66.66 36.21C66.66 36.5833 66.66 36.9333 66.66 37.26C66.66 38.8467 66.8933 40.0133 67.36 40.76C67.8267 41.46 68.4333 41.81 69.18 41.81C70.0667 41.81 71.0933 41.4367 72.26 40.69C73.4733 39.8967 74.6867 38.94 75.9 37.82C77.1133 36.6533 78.21 35.5333 79.19 34.46C80.17 33.34 80.8933 32.4533 81.36 31.8C81.4533 31.66 81.5933 31.59 81.78 31.59C81.9667 31.59 82.13 31.66 82.27 31.8C82.41 31.94 82.41 32.1267 82.27 32.36C81.6633 33.2933 80.8 34.39 79.68 35.65C78.6067 36.8633 77.4633 38.0533 76.25 39.22C75.0833 40.34 74.0333 41.25 73.1 41.95C72.4 42.4633 71.5833 42.8833 70.65 43.21C69.7633 43.5367 68.8767 43.7 67.99 43.7C66.9633 43.7 66.03 43.4433 65.19 42.93C64.35 42.4167 63.7667 41.53 63.44 40.27C63.3 39.8033 63.2067 39.3133 63.16 38.8C63.1133 38.2867 63.09 37.75 63.09 37.19C63.09 35.23 63.37 33.06 63.93 30.68C64.49 28.2533 65.19 25.85 66.03 23.47C66.87 21.0433 67.6633 18.85 68.41 16.89C69.2033 14.8833 69.81 13.2967 70.23 12.13C70.5567 11.4767 70.72 10.87 70.72 10.31C70.72 9.33 70.3 8.84 69.46 8.84C68.76 8.84 67.9433 9.23666 67.01 10.03C65.6567 11.1967 64.1633 12.7133 62.53 14.58C60.9433 16.4467 59.31 18.5 57.63 20.74C55.9967 22.98 54.3867 25.29 52.8 27.67C51.26 30.0033 49.8367 32.2667 48.53 34.46C47.27 36.6067 46.2433 38.52 45.45 40.2C45.1233 40.9 44.75 41.25 44.33 41.25C44.0033 41.25 43.6767 41.04 43.35 40.62C43.07 40.2 42.8367 39.7567 42.65 39.29C42.51 38.7767 42.4867 38.4267 42.58 38.24C43.1867 36.7467 43.7467 34.9267 44.26 32.78C44.7733 30.5867 45.1933 28.2767 45.52 25.85C45.8467 23.3767 46.01 21.02 46.01 18.78C46.01 15.7933 45.6367 13.2733 44.89 11.22C44.1433 9.12 42.8367 8.07 40.97 8.07C39.7567 8.07 38.2167 8.58333 36.35 9.61C34.4833 10.6367 32.4533 12.0133 30.26 13.74C28.1133 15.4667 25.8967 17.38 23.61 19.48C23.19 20.5067 22.56 22 21.72 23.96C20.9267 25.92 19.97 28.09 18.85 30.47C17.7767 32.85 16.5633 35.23 15.21 37.61C13.9033 39.9433 12.55 41.9967 11.15 43.77C9.89 45.3567 8.63 46.5233 7.37 47.27C6.11 48.0167 4.94333 48.39 3.87 48.39ZM4.22 45.94C5.43333 45.94 6.67 45.2867 7.93 43.98C9.23667 42.72 10.52 41.11 11.78 39.15C13.0867 37.1433 14.2767 35.0667 15.35 32.92C16.4233 30.7733 17.3333 28.79 18.08 26.97C18.8733 25.15 19.4333 23.7967 19.76 22.91C18.4533 24.17 17.0767 25.57 15.63 27.11C14.1833 28.6033 12.76 30.1433 11.36 31.73C10.0067 33.27 8.77 34.7167 7.65 36.07C6.53 37.4233 5.64333 38.5433 4.99 39.43C4.24333 40.4567 3.68333 41.39 3.31 42.23C2.98333 43.0233 2.82 43.7233 2.82 44.33C2.82 45.4033 3.28667 45.94 4.22 45.94ZM99.9609 43.7C99.1675 43.7 98.4209 43.5133 97.7209 43.14C97.0675 42.7667 96.5775 42.0667 96.2509 41.04C96.1109 40.62 96.0409 40.0367 96.0409 39.29C96.0409 38.2633 96.1809 37.12 96.4609 35.86C96.7409 34.6 97.0442 33.5267 97.3709 32.64C97.1375 32.7333 96.6942 33.1533 96.0409 33.9C95.4342 34.6 94.6642 35.4633 93.7309 36.49C92.8442 37.47 91.8409 38.4733 90.7209 39.5C89.6475 40.48 88.5275 41.2967 87.3609 41.95C86.1942 42.6033 85.0509 42.93 83.9309 42.93C83.1842 42.93 82.3909 42.72 81.5509 42.3C80.7109 41.8333 80.0342 41.25 79.5209 40.55C78.8209 39.6167 78.4709 38.66 78.4709 37.68C78.4709 36.42 78.8909 35.1133 79.7309 33.76C80.6175 32.4067 81.7375 31.1 83.0909 29.84C84.4909 28.5333 85.9609 27.3667 87.5009 26.34C89.0875 25.2667 90.5809 24.38 91.9809 23.68C93.4275 22.9333 94.5942 22.4433 95.4809 22.21C96.4142 21.93 97.4642 21.79 98.6309 21.79C99.2842 21.79 99.9609 21.8833 100.661 22.07C101.361 22.21 101.944 22.4667 102.411 22.84C102.784 23.0267 103.088 23.2833 103.321 23.61C103.554 23.9367 103.671 24.2867 103.671 24.66C103.671 25.0333 103.508 25.15 103.181 25.01C102.808 24.45 102.294 24.1 101.641 23.96C101.034 23.7733 100.404 23.68 99.7509 23.68C97.8842 23.68 95.8309 24.2867 93.5909 25.5C91.3509 26.7133 89.3442 28.1367 87.5709 29.77C87.0109 30.2367 86.2409 31.0533 85.2609 32.22C84.3275 33.34 83.4642 34.5767 82.6709 35.93C81.8775 37.2833 81.4809 38.52 81.4809 39.64C81.4809 40.2467 81.6442 40.7833 81.9709 41.25C82.1575 41.5767 82.4609 41.74 82.8809 41.74C83.5342 41.74 84.3975 41.39 85.4709 40.69C86.5909 39.99 87.7342 39.15 88.9009 38.17C90.0675 37.1433 91.1175 36.1633 92.0509 35.23C93.0309 34.2967 93.7309 33.62 94.1509 33.2C94.3842 32.9667 94.8275 32.5 95.4809 31.8C96.1809 31.0533 96.9275 30.26 97.7209 29.42C98.5142 28.58 99.2142 27.8567 99.8209 27.25C100.474 26.6433 100.894 26.34 101.081 26.34C101.314 26.34 101.688 26.41 102.201 26.55C102.761 26.6433 103.228 26.8067 103.601 27.04C103.974 27.2733 104.044 27.5767 103.811 27.95C102.598 29.7233 101.618 31.59 100.871 33.55C100.171 35.4633 99.7509 36.98 99.6109 38.1C99.5642 38.2867 99.5409 38.4733 99.5409 38.66C99.5409 38.8 99.5409 38.9633 99.5409 39.15C99.5409 41.0167 100.194 41.95 101.501 41.95C102.201 41.95 103.134 41.53 104.301 40.69C105.468 39.85 106.658 38.8467 107.871 37.68C109.084 36.5133 110.181 35.3933 111.161 34.32C112.188 33.2 112.888 32.36 113.261 31.8C113.401 31.66 113.541 31.59 113.681 31.59C113.868 31.59 114.031 31.6833 114.171 31.87C114.311 32.01 114.311 32.1967 114.171 32.43C113.658 33.27 112.911 34.2733 111.931 35.44C110.951 36.6067 109.854 37.7733 108.641 38.94C107.428 40.1067 106.238 41.11 105.071 41.95C104.464 42.4167 103.694 42.8133 102.761 43.14C101.828 43.5133 100.894 43.7 99.9609 43.7ZM112.92 46.5C112.406 46.5 111.893 46.43 111.38 46.29C110.866 46.15 110.493 45.87 110.26 45.45C110.073 45.0767 110.096 44.61 110.33 44.05C110.563 43.5367 110.89 43.07 111.31 42.65C111.683 42.2767 112.15 41.9033 112.71 41.53C113.316 41.1567 113.946 40.8533 114.6 40.62H114.74C114.973 40.62 115.09 40.7133 115.09 40.9C115.09 41.04 114.996 41.18 114.81 41.32C113.97 41.74 113.316 42.2533 112.85 42.86C112.523 43.2333 112.36 43.63 112.36 44.05C112.36 44.7967 112.803 45.17 113.69 45.17C114.67 45.17 115.72 44.8667 116.84 44.26C118.006 43.7 119.103 42.9533 120.13 42.02C121.203 41.04 122.066 40.0133 122.72 38.94C123.373 37.8667 123.7 36.84 123.7 35.86C123.7 35.2067 123.35 34.6233 122.65 34.11C121.95 33.55 121.18 33.06 120.34 32.64C119.5 32.1733 118.87 31.8 118.45 31.52C117.936 31.1467 117.47 30.7733 117.05 30.4C116.63 29.98 116.303 29.5367 116.07 29.07C115.696 29.7233 115.206 30.5167 114.6 31.45C114.04 32.3367 113.363 33.27 112.57 34.25C112.29 34.53 112.01 34.67 111.73 34.67C111.45 34.67 111.31 34.5533 111.31 34.32C111.31 34.18 111.426 33.9467 111.66 33.62C112.92 32.1267 113.853 30.75 114.46 29.49C115.066 28.23 115.486 27.2733 115.72 26.62C115.906 25.2667 116.536 23.9833 117.61 22.77C118.683 21.5567 119.99 20.5067 121.53 19.62C123.07 18.6867 124.633 17.9633 126.22 17.45C127.853 16.9367 129.3 16.68 130.56 16.68C131.82 16.68 132.94 16.9133 133.92 17.38C134.9 17.8467 135.39 18.5933 135.39 19.62C135.39 20.18 135.226 20.7867 134.9 21.44C134.48 22.3267 133.78 23.12 132.8 23.82C132.753 23.8667 132.683 23.89 132.59 23.89C132.216 23.89 132.03 23.7267 132.03 23.4C132.03 23.1667 132.146 22.9333 132.38 22.7C132.753 22.3733 133.056 21.9767 133.29 21.51C133.523 21.0433 133.64 20.6 133.64 20.18C133.64 19.34 133.15 18.92 132.17 18.92C131.47 18.92 130.653 19.06 129.72 19.34C128.786 19.5733 127.876 19.8767 126.99 20.25C126.15 20.5767 125.45 20.88 124.89 21.16C123.723 21.72 122.65 22.42 121.67 23.26C120.69 24.0533 119.756 25.0567 118.87 26.27C118.263 27.0633 117.96 27.81 117.96 28.51C117.96 29.35 118.52 30.12 119.64 30.82C120.806 31.4733 121.95 32.1033 123.07 32.71C124.236 33.3167 125.216 33.97 126.01 34.67C126.803 35.37 127.2 36.21 127.2 37.19C127.2 38.2633 126.523 39.5467 125.17 41.04C124.33 41.9733 123.186 42.86 121.74 43.7C120.34 44.54 118.846 45.2167 117.26 45.73C115.673 46.2433 114.226 46.5 112.92 46.5ZM138.323 43.77C137.016 43.77 135.873 43.4667 134.893 42.86C133.259 41.88 132.443 40.1067 132.443 37.54C132.443 36.4667 132.629 35.23 133.003 33.83C133.329 32.6633 133.913 31.4033 134.753 30.05C135.593 28.65 136.573 27.32 137.693 26.06C138.859 24.8 140.119 23.7733 141.473 22.98C142.826 22.1867 144.179 21.79 145.533 21.79C146.093 21.79 146.583 21.86 147.003 22C147.563 22.1867 148.029 22.5367 148.403 23.05C148.823 23.5167 149.033 24.1233 149.033 24.87C149.033 25.6633 148.823 26.1067 148.403 26.2C148.029 26.2933 147.843 26.2 147.843 25.92C147.843 25.8267 147.843 25.7333 147.843 25.64C147.889 25.5467 147.913 25.4767 147.913 25.43C147.913 25.0567 147.796 24.73 147.562 24.45C147.376 24.1233 147.003 23.96 146.443 23.96C145.696 23.96 144.763 24.3567 143.643 25.15C142.569 25.9433 141.449 27.0167 140.283 28.37C139.163 29.6767 138.159 31.1233 137.273 32.71C136.433 34.2967 135.873 35.8833 135.593 37.47C135.546 37.7033 135.499 37.9367 135.453 38.17C135.453 38.3567 135.453 38.5667 135.453 38.8C135.453 39.8733 135.686 40.7833 136.153 41.53C136.666 42.23 137.459 42.58 138.533 42.58C139.839 42.58 141.099 42.09 142.313 41.11C143.526 40.0833 144.599 38.87 145.533 37.47C146.513 36.07 147.236 34.8333 147.703 33.76C148.076 32.92 148.333 32.1967 148.473 31.59C148.613 30.9833 148.683 30.47 148.683 30.05C148.683 29.6767 148.636 29.35 148.542 29.07C148.496 28.79 148.426 28.5567 148.333 28.37C148.239 28.09 148.193 27.88 148.193 27.74C148.193 27.3667 148.333 27.0633 148.613 26.83C148.939 26.5967 149.266 26.48 149.593 26.48C149.873 26.48 150.176 26.5733 150.503 26.76C150.876 26.8533 151.389 26.9233 152.043 26.97C152.696 27.0167 153.396 27.04 154.143 27.04C154.936 27.04 155.729 27.0167 156.523 26.97C157.363 26.9233 158.086 26.83 158.693 26.69C158.786 26.6433 158.926 26.62 159.113 26.62C159.439 26.62 159.603 26.7133 159.603 26.9C159.603 27.0867 159.439 27.25 159.113 27.39C157.479 28.1367 156.009 28.5333 154.703 28.58C153.443 28.6267 152.346 28.65 151.413 28.65C151.506 29.8167 151.249 31.0767 150.642 32.43C150.036 33.7367 149.406 34.9033 148.753 35.93C147.959 37.0967 147.049 38.2867 146.023 39.5C144.996 40.7133 143.853 41.74 142.593 42.58C141.333 43.3733 139.909 43.77 138.323 43.77ZM154.464 43.91C154.137 43.91 154.044 43.7467 154.184 43.42C154.324 43.14 154.58 42.51 154.954 41.53C155.327 40.5033 155.747 39.29 156.214 37.89C156.727 36.49 157.24 35.0433 157.754 33.55C158.267 32.0567 158.734 30.6567 159.154 29.35C159.62 28.0433 159.994 27.0167 160.274 26.27C160.367 25.99 160.46 25.5933 160.554 25.08C160.647 24.52 160.834 24.03 161.114 23.61C161.44 23.1433 161.977 22.91 162.724 22.91C164.124 22.91 164.824 23.2367 164.824 23.89C164.824 24.1233 164.707 24.52 164.474 25.08C163.914 26.34 163.307 27.7867 162.654 29.42C162 31.0533 161.417 32.5933 160.904 34.04C160.39 35.4867 159.994 36.6067 159.714 37.4C160.18 36.7467 160.927 35.8133 161.954 34.6C163.027 33.3867 164.217 32.08 165.524 30.68C166.83 29.28 168.184 27.9267 169.584 26.62C171.03 25.3133 172.36 24.2633 173.574 23.47C174.834 22.63 175.907 22.21 176.794 22.21C177.914 22.21 178.474 22.8167 178.474 24.03C178.474 24.45 178.357 25.08 178.124 25.92C177.704 27.0867 177.167 28.23 176.514 29.35C175.86 30.4233 175.277 31.5667 174.764 32.78C173.877 34.9733 173.364 36.7467 173.224 38.1C173.177 38.2867 173.154 38.4733 173.154 38.66C173.154 38.8 173.154 38.9633 173.154 39.15C173.154 41.0167 173.784 41.95 175.044 41.95C175.744 41.95 176.677 41.53 177.844 40.69C179.01 39.85 180.2 38.8467 181.414 37.68C182.674 36.5133 183.794 35.3933 184.774 34.32C185.754 33.2 186.43 32.36 186.804 31.8C186.944 31.66 187.084 31.59 187.224 31.59C187.41 31.59 187.55 31.66 187.644 31.8C187.784 31.94 187.807 32.1267 187.714 32.36C187.294 33.1533 186.57 34.1567 185.544 35.37C184.564 36.5367 183.467 37.7267 182.254 38.94C181.04 40.1067 179.85 41.11 178.684 41.95C177.984 42.4167 177.12 42.8367 176.094 43.21C175.067 43.5833 174.04 43.7467 173.014 43.7C171.707 43.56 170.774 43.1167 170.214 42.37C169.654 41.5767 169.374 40.6433 169.374 39.57C169.374 38.31 169.607 36.98 170.074 35.58C170.587 34.1333 171.147 32.78 171.754 31.52C172.36 30.26 172.85 29.3033 173.224 28.65C173.597 27.9033 173.784 27.32 173.784 26.9C173.784 26.5267 173.62 26.34 173.294 26.34C172.967 26.34 172.477 26.55 171.824 26.97C171.17 27.39 170.284 28.1133 169.164 29.14C168.137 30.0267 167.04 31.1933 165.874 32.64C164.707 34.04 163.564 35.4867 162.444 36.98C161.37 38.4733 160.414 39.7567 159.574 40.83C158.78 41.9033 158.22 42.5333 157.894 42.72C157.66 42.86 157.124 43.0933 156.284 43.42C155.49 43.7467 154.884 43.91 154.464 43.91ZM239.797 54.48C237.837 54.48 235.807 54.2 233.707 53.64C231.653 53.1267 229.717 52.4967 227.897 51.75C226.077 51.05 224.49 50.4667 223.137 50C220.663 49.1133 218.353 48.25 216.207 47.41C214.06 46.57 212.543 46.0567 211.657 45.87C207.13 44.7033 203.933 44.12 202.067 44.12C201.74 44.3533 201.437 44.54 201.157 44.68C200.877 44.8667 200.573 44.9833 200.247 45.03C200.107 45.0767 199.897 45.1 199.617 45.1C198.777 45.1 198.357 44.82 198.357 44.26C198.357 43.9333 198.613 43.6067 199.127 43.28C199.5 43.0933 199.92 43 200.387 43C200.9 42.9533 201.413 42.9067 201.927 42.86C203 41.9267 204.003 40.7367 204.937 39.29C205.917 37.8433 206.617 36.7467 207.037 36C207.41 35.3467 207.76 34.7167 208.087 34.11C208.46 33.4567 208.833 32.8267 209.207 32.22C208.46 32.4067 207.69 32.5933 206.897 32.78C206.103 32.92 205.333 32.99 204.587 32.99C203.233 32.99 201.997 32.71 200.877 32.15C199.803 31.59 199.267 30.5633 199.267 29.07C199.267 28.09 199.687 27.18 200.527 26.34C201.413 25.5 202.323 25.08 203.257 25.08C203.817 25.08 204.097 25.3133 204.097 25.78C204.097 26.06 203.887 26.2 203.467 26.2C202.953 26.2 202.487 26.5033 202.067 27.11C201.647 27.7167 201.437 28.3467 201.437 29C201.437 29.4667 201.577 29.9333 201.857 30.4C202.183 30.82 202.72 31.0767 203.467 31.17C204.167 31.31 204.913 31.38 205.707 31.38C207.06 31.38 208.437 31.1933 209.837 30.82C210.49 29.5133 211.097 28.23 211.657 26.97C212.263 25.6633 212.847 24.38 213.407 23.12C214.573 20.5533 215.763 18.0567 216.977 15.63C218.19 13.2033 219.38 11.0333 220.547 9.12C221.713 7.20666 222.763 5.78333 223.697 4.85C225.47 3.17 227.243 1.98 229.017 1.28C230.837 0.58 232.47 0.23 233.917 0.23C234.197 0.23 234.477 0.253333 234.757 0.299999C235.037 0.299999 235.293 0.323332 235.527 0.369998C237.253 0.649997 238.467 1.25666 239.167 2.19C239.867 3.07667 240.217 4.15 240.217 5.41C240.217 6.06333 240.147 6.74 240.007 7.44C239.4 10.38 238.163 13.1333 236.297 15.7C234.477 18.2667 232.26 20.6 229.647 22.7C227.033 24.7533 224.233 26.5033 221.247 27.95C218.307 29.3967 215.437 30.4467 212.637 31.1C212.03 32.1267 211.377 33.1533 210.677 34.18C210.023 35.16 209.3 36.14 208.507 37.12C208.04 37.82 207.363 38.73 206.477 39.85C205.59 40.9233 204.68 41.9267 203.747 42.86C204.4 42.9067 205.1 42.9533 205.847 43C206.64 43.0933 207.48 43.21 208.367 43.35C212.24 43.9567 216.113 44.8433 219.987 46.01C223.907 47.2233 227.78 48.32 231.607 49.3C232.68 49.58 234.197 49.93 236.157 50.35C238.163 50.77 240.03 50.98 241.757 50.98C243.437 50.98 244.72 50.6767 245.607 50.07C246.307 49.65 246.657 49.0667 246.657 48.32C246.657 47.76 246.4 47.2933 245.887 46.92C245.607 46.6867 245.467 46.5 245.467 46.36C245.467 45.8933 245.747 45.8233 246.307 46.15C246.913 46.57 247.333 47.06 247.567 47.62C247.847 48.18 247.987 48.7633 247.987 49.37C247.987 50.07 247.847 50.7 247.567 51.26C247.333 51.8667 247.03 52.2867 246.657 52.52C244.743 53.8267 242.457 54.48 239.797 54.48ZM213.687 29.49C218.867 27.25 223.417 24.52 227.337 21.3C231.257 18.08 234.36 13.8333 236.647 8.56C237.393 6.92667 237.767 5.50333 237.767 4.29C237.767 3.31 237.463 2.54 236.857 1.98C236.53 1.56 235.993 1.35 235.247 1.35C233.707 1.35 232.12 1.88666 230.487 2.96C229.087 3.98667 227.757 5.34 226.497 7.02C225.283 8.7 224.14 10.4733 223.067 12.34C221.993 14.2067 221.037 15.98 220.197 17.66C219.403 19.2933 218.727 20.6 218.167 21.58C217.793 22.3267 217.21 23.4233 216.417 24.87C215.67 26.3167 214.76 27.8567 213.687 29.49ZM236.234 44.05C234.134 44.05 232.314 43.56 230.774 42.58C229.234 41.6 228.464 40.1067 228.464 38.1C228.464 37.0267 228.791 35.72 229.444 34.18C229.911 33.1067 230.774 31.87 232.034 30.47C233.294 29.07 234.764 27.7167 236.444 26.41C238.124 25.0567 239.828 23.96 241.554 23.12C243.281 22.2333 244.844 21.79 246.244 21.79C246.758 21.79 247.224 21.86 247.644 22C248.438 22.28 248.974 22.7233 249.254 23.33C249.581 23.9367 249.744 24.5667 249.744 25.22C249.744 25.8267 249.651 26.41 249.464 26.97C249.278 27.53 249.044 28.02 248.764 28.44C247.924 29.7 246.711 30.82 245.124 31.8C243.584 32.78 241.998 33.55 240.364 34.11C238.778 34.67 237.471 34.9967 236.444 35.09H236.304C235.698 35.09 235.394 34.9033 235.394 34.53C235.394 34.2967 235.581 34.18 235.954 34.18C237.074 34.0867 238.474 33.5733 240.154 32.64C241.881 31.66 243.398 30.6567 244.704 29.63C245.264 29.1633 245.918 28.51 246.664 27.67C247.458 26.83 247.854 26.0133 247.854 25.22C247.854 24.38 247.458 23.96 246.664 23.96C246.244 23.96 245.801 24.0533 245.334 24.24C244.914 24.4267 244.564 24.5667 244.284 24.66C242.931 25.3133 241.438 26.34 239.804 27.74C238.171 29.0933 236.678 30.6333 235.324 32.36C234.018 34.04 233.108 35.7433 232.594 37.47C232.454 37.8433 232.361 38.2167 232.314 38.59C232.268 38.9167 232.244 39.2433 232.244 39.57C232.244 40.69 232.594 41.4833 233.294 41.95C234.041 42.4167 234.928 42.65 235.954 42.65C237.494 42.65 239.081 42.3233 240.714 41.67C242.348 40.97 243.934 40.0833 245.474 39.01C247.014 37.9367 248.414 36.7933 249.674 35.58C250.981 34.32 252.078 33.1067 252.964 31.94C253.104 31.7533 253.268 31.66 253.454 31.66C253.641 31.6133 253.758 31.6367 253.804 31.73C253.991 31.7767 254.084 31.9167 254.084 32.15C254.084 32.3367 254.038 32.5233 253.944 32.71C252.638 34.53 251.051 36.3033 249.184 38.03C247.364 39.7567 245.334 41.2033 243.094 42.37C240.901 43.49 238.614 44.05 236.234 44.05ZM255.018 44.96C254.551 44.96 253.991 44.9133 253.338 44.82C252.731 44.7267 252.195 44.61 251.728 44.47C251.261 44.33 251.028 44.2133 251.028 44.12C251.028 44.0267 251.238 43.9333 251.658 43.84C252.125 43.7933 252.918 43.77 254.038 43.77C255.205 43.77 256.465 43.49 257.818 42.93C259.218 42.3233 260.548 41.6233 261.808 40.83C263.068 40.0367 264.141 39.3367 265.028 38.73C266.428 37.7033 267.875 36.3967 269.368 34.81C270.861 33.1767 271.911 31.4033 272.518 29.49C272.611 29.1633 272.728 28.72 272.868 28.16C273.008 27.6 273.078 27.04 273.078 26.48C273.078 25.9667 272.985 25.5467 272.798 25.22C272.611 24.8467 272.261 24.66 271.748 24.66C270.815 24.66 269.835 24.9167 268.808 25.43C267.828 25.9433 266.871 26.55 265.938 27.25C265.051 27.9033 264.281 28.5333 263.628 29.14C263.068 29.56 262.391 30.19 261.598 31.03C260.805 31.87 260.011 32.8033 259.218 33.83C258.471 34.8567 257.865 35.8833 257.398 36.91C256.931 37.89 256.768 38.7767 256.908 39.57C257.001 39.7567 256.931 40.13 256.698 40.69C256.511 41.25 256.161 41.53 255.648 41.53C255.228 41.53 254.738 41.1333 254.178 40.34C253.851 39.9667 253.688 39.1967 253.688 38.03C253.688 36.9567 253.805 35.79 254.038 34.53C254.271 33.27 254.481 32.2433 254.668 31.45C254.201 32.01 253.781 32.6167 253.408 33.27C253.081 33.8767 252.381 34.7867 251.308 36C251.121 36.1867 250.911 36.28 250.678 36.28C250.351 36.28 250.188 36.0933 250.188 35.72C250.188 35.44 250.281 35.2067 250.468 35.02C252.148 32.8733 253.548 31.0533 254.668 29.56C255.835 28.02 256.558 26.9233 256.838 26.27C257.211 25.29 257.701 24.03 258.308 22.49C258.961 20.95 259.685 19.3167 260.478 17.59C261.271 15.8167 262.088 14.1133 262.928 12.48C263.768 10.8 264.585 9.35333 265.378 8.14C266.078 7.06666 266.895 5.99333 267.828 4.92C268.761 3.8 269.811 2.89 270.978 2.19C272.145 1.44333 273.405 1.07 274.758 1.07C275.271 1.07 275.831 1.14 276.438 1.28C276.485 1.28 276.601 1.32666 276.788 1.42L277.488 1.63C277.581 1.67666 277.651 1.7 277.698 1.7C277.745 1.7 277.791 1.72333 277.838 1.77C279.145 2.56333 279.798 3.66 279.798 5.06C279.798 6.18 279.425 7.44 278.678 8.84C278.025 10.1467 276.951 11.6633 275.458 13.39C274.011 15.07 272.331 16.7967 270.418 18.57C268.551 20.2967 266.615 21.9767 264.608 23.61C262.648 25.1967 260.851 26.55 259.218 27.67C258.751 28.5567 258.331 29.5833 257.958 30.75C257.585 31.9167 257.281 33.0833 257.048 34.25C257.981 32.8967 259.031 31.59 260.198 30.33C261.365 29.0233 262.391 27.9967 263.278 27.25C264.725 26.0367 266.125 25.08 267.478 24.38C268.878 23.6333 270.161 23.26 271.328 23.26C271.888 23.26 272.565 23.4467 273.358 23.82C274.198 24.1933 274.945 24.6833 275.598 25.29C276.298 25.85 276.695 26.4567 276.788 27.11C276.788 27.25 276.788 27.39 276.788 27.53C276.835 27.6233 276.858 27.74 276.858 27.88C276.858 29.14 276.508 30.4233 275.808 31.73C275.108 33.0367 274.221 34.2733 273.148 35.44C272.121 36.6067 271.025 37.6567 269.858 38.59C268.738 39.5233 267.735 40.2933 266.848 40.9C265.075 42.0667 263.185 43.0233 261.178 43.77C259.218 44.5633 257.165 44.96 255.018 44.96ZM259.988 24.87C262.135 23.47 264.281 21.8133 266.428 19.9C268.575 17.9867 270.558 15.98 272.378 13.88C274.245 11.78 275.738 9.82 276.858 8C277.558 6.88 277.908 5.78333 277.908 4.71C277.908 4.19666 277.791 3.77667 277.558 3.45C277.371 3.07667 277.045 2.89 276.578 2.89C276.251 2.89 275.855 2.98333 275.388 3.17C274.968 3.35667 274.501 3.68333 273.988 4.15C272.028 5.64333 270.208 7.51 268.528 9.75C266.848 11.99 265.308 14.4167 263.908 17.03C262.508 19.5967 261.201 22.21 259.988 24.87ZM283.426 43.7C281.466 43.7 280.09 43.21 279.296 42.23C278.55 41.25 278.176 40.0367 278.176 38.59C278.176 37.2367 278.48 35.5333 279.086 33.48C279.74 31.4267 280.58 29.21 281.606 26.83C282.633 24.45 283.73 22.0933 284.896 19.76C286.11 17.38 287.3 15.21 288.466 13.25C289.68 11.2433 290.73 9.63333 291.616 8.42C292.503 7.25333 293.46 6.08666 294.486 4.92C295.513 3.75333 296.656 2.77333 297.916 1.98C299.176 1.18666 300.6 0.789997 302.186 0.789997C303.26 0.789997 304.17 1.09333 304.916 1.7C305.71 2.26 306.106 3.12333 306.106 4.29C306.106 4.75666 306.013 5.29333 305.826 5.9C305.686 6.50667 305.43 7.13667 305.056 7.79C302.21 12.7367 298.803 17.31 294.836 21.51C290.916 25.71 286.763 29.6067 282.376 33.2C282.19 33.9 282.003 34.53 281.816 35.09C281.676 35.65 281.56 36.0933 281.466 36.42C281.42 36.6533 281.396 36.91 281.396 37.19C281.396 37.4233 281.396 37.6567 281.396 37.89C281.396 39.01 281.583 39.99 281.956 40.83C282.33 41.67 282.96 42.09 283.846 42.09C284.686 42.09 285.713 41.6933 286.926 40.9C288.186 40.06 289.446 39.0567 290.706 37.89C291.966 36.6767 293.11 35.51 294.136 34.39C295.163 33.27 295.886 32.4067 296.306 31.8C296.446 31.66 296.586 31.59 296.726 31.59C296.913 31.59 297.053 31.6833 297.146 31.87C297.286 32.0567 297.286 32.29 297.146 32.57C296.68 33.3633 295.933 34.3433 294.906 35.51C293.88 36.6767 292.736 37.8667 291.476 39.08C290.216 40.2467 289.003 41.2733 287.836 42.16C286.39 43.1867 284.92 43.7 283.426 43.7ZM283.356 30.4C285.13 29.1867 286.973 27.6233 288.886 25.71C290.8 23.75 292.666 21.6267 294.486 19.34C296.353 17.0533 298.033 14.79 299.526 12.55C301.066 10.31 302.303 8.28 303.236 6.46C303.516 5.94666 303.703 5.50333 303.796 5.13C303.936 4.71 304.006 4.33667 304.006 4.01C304.006 3.12333 303.633 2.68 302.886 2.68C302.233 2.68 301.416 3.03 300.436 3.73C297.916 5.69 295.583 8.21 293.436 11.29C291.29 14.3233 289.376 17.52 287.696 20.88C286.016 24.24 284.57 27.4133 283.356 30.4ZM314.883 43.7C314.089 43.7 313.343 43.5133 312.643 43.14C311.989 42.7667 311.499 42.0667 311.173 41.04C311.033 40.62 310.963 40.0367 310.963 39.29C310.963 38.2633 311.103 37.12 311.383 35.86C311.663 34.6 311.966 33.5267 312.293 32.64C312.059 32.7333 311.616 33.1533 310.963 33.9C310.356 34.6 309.586 35.4633 308.653 36.49C307.766 37.47 306.763 38.4733 305.643 39.5C304.569 40.48 303.449 41.2967 302.283 41.95C301.116 42.6033 299.973 42.93 298.853 42.93C298.106 42.93 297.313 42.72 296.473 42.3C295.633 41.8333 294.956 41.25 294.443 40.55C293.743 39.6167 293.393 38.66 293.393 37.68C293.393 36.42 293.813 35.1133 294.653 33.76C295.539 32.4067 296.659 31.1 298.013 29.84C299.413 28.5333 300.883 27.3667 302.423 26.34C304.009 25.2667 305.503 24.38 306.903 23.68C308.349 22.9333 309.516 22.4433 310.403 22.21C311.336 21.93 312.386 21.79 313.553 21.79C314.206 21.79 314.883 21.8833 315.583 22.07C316.283 22.21 316.866 22.4667 317.333 22.84C317.706 23.0267 318.009 23.2833 318.243 23.61C318.476 23.9367 318.593 24.2867 318.593 24.66C318.593 25.0333 318.429 25.15 318.103 25.01C317.729 24.45 317.216 24.1 316.563 23.96C315.956 23.7733 315.326 23.68 314.673 23.68C312.806 23.68 310.753 24.2867 308.513 25.5C306.273 26.7133 304.266 28.1367 302.493 29.77C301.933 30.2367 301.163 31.0533 300.183 32.22C299.249 33.34 298.386 34.5767 297.593 35.93C296.799 37.2833 296.403 38.52 296.403 39.64C296.403 40.2467 296.566 40.7833 296.893 41.25C297.079 41.5767 297.383 41.74 297.803 41.74C298.456 41.74 299.319 41.39 300.393 40.69C301.513 39.99 302.656 39.15 303.823 38.17C304.989 37.1433 306.039 36.1633 306.973 35.23C307.953 34.2967 308.653 33.62 309.073 33.2C309.306 32.9667 309.749 32.5 310.403 31.8C311.103 31.0533 311.849 30.26 312.643 29.42C313.436 28.58 314.136 27.8567 314.743 27.25C315.396 26.6433 315.816 26.34 316.003 26.34C316.236 26.34 316.609 26.41 317.123 26.55C317.683 26.6433 318.149 26.8067 318.523 27.04C318.896 27.2733 318.966 27.5767 318.733 27.95C317.519 29.7233 316.539 31.59 315.793 33.55C315.093 35.4633 314.673 36.98 314.533 38.1C314.486 38.2867 314.463 38.4733 314.463 38.66C314.463 38.8 314.463 38.9633 314.463 39.15C314.463 41.0167 315.116 41.95 316.423 41.95C317.123 41.95 318.056 41.53 319.223 40.69C320.389 39.85 321.579 38.8467 322.793 37.68C324.006 36.5133 325.103 35.3933 326.083 34.32C327.109 33.2 327.809 32.36 328.183 31.8C328.323 31.66 328.463 31.59 328.603 31.59C328.789 31.59 328.953 31.6833 329.093 31.87C329.233 32.01 329.233 32.1967 329.093 32.43C328.579 33.27 327.833 34.2733 326.853 35.44C325.873 36.6067 324.776 37.7733 323.563 38.94C322.349 40.1067 321.159 41.11 319.993 41.95C319.386 42.4167 318.616 42.8133 317.683 43.14C316.749 43.5133 315.816 43.7 314.883 43.7ZM324.131 43.91C323.805 43.91 323.711 43.7467 323.851 43.42C323.991 43.14 324.248 42.51 324.621 41.53C324.995 40.5033 325.415 39.29 325.881 37.89C326.395 36.49 326.908 35.0433 327.421 33.55C327.935 32.0567 328.401 30.6567 328.821 29.35C329.288 28.0433 329.661 27.0167 329.941 26.27C330.035 25.99 330.128 25.5933 330.221 25.08C330.315 24.52 330.501 24.03 330.781 23.61C331.108 23.1433 331.645 22.91 332.391 22.91C333.791 22.91 334.491 23.2367 334.491 23.89C334.491 24.1233 334.375 24.52 334.141 25.08C333.581 26.34 332.975 27.7867 332.321 29.42C331.668 31.0533 331.085 32.5933 330.571 34.04C330.058 35.4867 329.661 36.6067 329.381 37.4C329.848 36.7467 330.595 35.8133 331.621 34.6C332.695 33.3867 333.885 32.08 335.191 30.68C336.498 29.28 337.851 27.9267 339.251 26.62C340.698 25.3133 342.028 24.2633 343.241 23.47C344.501 22.63 345.575 22.21 346.461 22.21C347.581 22.21 348.141 22.8167 348.141 24.03C348.141 24.45 348.025 25.08 347.791 25.92C347.371 27.0867 346.835 28.23 346.181 29.35C345.528 30.4233 344.945 31.5667 344.431 32.78C343.545 34.9733 343.031 36.7467 342.891 38.1C342.845 38.2867 342.821 38.4733 342.821 38.66C342.821 38.8 342.821 38.9633 342.821 39.15C342.821 41.0167 343.451 41.95 344.711 41.95C345.411 41.95 346.345 41.53 347.511 40.69C348.678 39.85 349.868 38.8467 351.081 37.68C352.341 36.5133 353.461 35.3933 354.441 34.32C355.421 33.2 356.098 32.36 356.471 31.8C356.611 31.66 356.751 31.59 356.891 31.59C357.078 31.59 357.218 31.66 357.311 31.8C357.451 31.94 357.475 32.1267 357.381 32.36C356.961 33.1533 356.238 34.1567 355.211 35.37C354.231 36.5367 353.135 37.7267 351.921 38.94C350.708 40.1067 349.518 41.11 348.351 41.95C347.651 42.4167 346.788 42.8367 345.761 43.21C344.735 43.5833 343.708 43.7467 342.681 43.7C341.375 43.56 340.441 43.1167 339.881 42.37C339.321 41.5767 339.041 40.6433 339.041 39.57C339.041 38.31 339.275 36.98 339.741 35.58C340.255 34.1333 340.815 32.78 341.421 31.52C342.028 30.26 342.518 29.3033 342.891 28.65C343.265 27.9033 343.451 27.32 343.451 26.9C343.451 26.5267 343.288 26.34 342.961 26.34C342.635 26.34 342.145 26.55 341.491 26.97C340.838 27.39 339.951 28.1133 338.831 29.14C337.805 30.0267 336.708 31.1933 335.541 32.64C334.375 34.04 333.231 35.4867 332.111 36.98C331.038 38.4733 330.081 39.7567 329.241 40.83C328.448 41.9033 327.888 42.5333 327.561 42.72C327.328 42.86 326.791 43.0933 325.951 43.42C325.158 43.7467 324.551 43.91 324.131 43.91ZM363.632 43.77C362.792 43.91 361.952 43.98 361.112 43.98C359.059 43.98 357.356 43.49 356.002 42.51C354.649 41.53 353.972 40.1067 353.972 38.24C353.972 37.12 354.299 35.7667 354.952 34.18C355.419 33.1067 356.282 31.87 357.542 30.47C358.802 29.07 360.272 27.7167 361.952 26.41C363.632 25.0567 365.336 23.96 367.062 23.12C368.789 22.2333 370.352 21.79 371.752 21.79C372.266 21.79 372.732 21.86 373.152 22C373.666 22.1867 374.109 22.4433 374.482 22.77C374.856 23.0967 375.042 23.5867 375.042 24.24C375.042 24.38 375.042 24.52 375.042 24.66C375.042 24.8 374.996 24.9633 374.902 25.15C374.902 25.29 374.786 25.5933 374.552 26.06C374.366 26.5267 374.132 26.9467 373.852 27.32C373.619 27.6467 373.409 27.7167 373.222 27.53C373.036 27.39 372.942 27.2033 372.942 26.97C372.942 26.7367 372.989 26.48 373.082 26.2C373.222 25.8733 373.292 25.5933 373.292 25.36C373.292 25.0333 373.199 24.73 373.012 24.45C372.872 24.1233 372.616 23.96 372.242 23.96C371.356 23.96 370.212 24.3567 368.812 25.15C367.412 25.9433 365.966 27.0167 364.472 28.37C363.026 29.6767 361.719 31.1233 360.552 32.71C359.386 34.2967 358.569 35.8833 358.102 37.47C357.962 37.8433 357.869 38.2167 357.822 38.59C357.776 38.9167 357.752 39.2433 357.752 39.57C357.752 40.5967 358.079 41.3433 358.732 41.81C359.432 42.23 360.272 42.44 361.252 42.44C362.326 42.44 363.422 42.2767 364.542 41.95C367.716 41.0167 370.282 39.7333 372.242 38.1C374.249 36.4667 376.256 34.3667 378.262 31.8C378.449 31.5667 378.612 31.4733 378.752 31.52C378.892 31.5667 379.009 31.59 379.102 31.59C379.242 31.6367 379.312 31.7767 379.312 32.01C379.312 32.1033 379.289 32.22 379.242 32.36C379.196 32.5 379.149 32.6167 379.102 32.71C377.096 35.4167 374.879 37.7967 372.452 39.85C370.026 41.8567 367.086 43.1633 363.632 43.77Z" fill="white"></path>
</svg>
